{"title":"006_Famous Diamonds (greek audio) Discovery Channel.mp4","uid":8851039,"size":586194763,"categoryP":"other","categoryS":"other","magnet":"?xt=urn:btih:0421d305d679e246ddded7162375d6a18030c69d&amp;dn=006_Famous+Diamonds+%28greek+audio%29+Discovery+Channel.mp4&amp;tr=udp%3A%2F%2Ftracker.openbittorrent.com%3A80&amp;tr=udp%3A%2F%2Fopen.demonii.com%3A1337&amp;tr=udp%3A%2F%2Ftracker.coppersurfer.tk%3A6969&amp;tr=udp%3A%2F%2Fexodus.desync.com%3A6969","seeders":0,"leechers":0,"uploader":"michel_G","files":-1,"time":1377524176,"description":"General                               Greek Audio\nComplete name                    : 006_Famous Diamonds (greek audio) Discovery Channel.mp4\nFormat                           : MPEG-4\nFormat profile                   : Base Media\nCodec ID                         : isom\nFile size                        : 559 MiB\nDuration                         : 49mn 55s\nOverall bit rate                 : 1 565 Kbps\nWriting application              : Lavf52.94.0\n\nVideo\nID                               : 1\nFormat                           : AVC\nFormat/Info                      : Advanced Video Codec\nFormat profile                   : &lt;a class=&quot;__cf_email__&quot; href=&quot;/cdn-cgi/l/email-protection&quot; data-cfemail=&quot;7538141c1b3539465b44&quot;&gt;[email&amp;#160;protected]&lt;/a&gt;&lt;script cf-hash='f9e31' type=&quot;text/javascript&quot;&gt;\n/* &lt;![CDATA[ */!function(){try{var t=&quot;currentScript&quot;in document?document.currentScript:function(){for(var t=document.getElementsByTagName(&quot;script&quot;),e=t.length;e--;)if(t[e].getAttribute(&quot;cf-hash&quot;))return t[e]}();if(t&amp;&amp;t.previousSibling){var e,r,n,i,c=t.previousSibling,a=c.getAttribute(&quot;data-cfemail&quot;);if(a){for(e=&quot;&quot;,r=parseInt(a.substr(0,2),16),n=2;a.length-n;n+=2)i=parseInt(a.substr(n,2),16)^r,e+=String.fromCharCode(i);e=document.createTextNode(e),c.parentNode.replaceChild(e,c)}}}catch(u){}}();/* ]]&gt; */&lt;/script&gt;\nFormat settings, CABAC           : Yes\nFormat settings, ReFrames        : 2 frames\nCodec ID                         : avc1\nCodec ID/Info                    : Advanced Video Coding\nDuration                         : 49mn 55s\nBit rate mode                    : Variable\nBit rate                         : 1 400 Kbps\nWidth                            : 1 280 pixels\nHeight                           : 720 pixels\nDisplay aspect ratio             : 16:9\nFrame rate mode                  : Constant\nFrame rate                       : 25.000 fps\nColor space                      : YUV\nChroma subsampling               : 4:2:0\nBit depth                        : 8 bits\nScan type                        : Progressive\nBits/(Pixel*Frame)               : 0.061\nStream size                      : 503 MiB (90%)\nWriting library                  : x264 core 112 r1834 a51816a\n\nAudio\nID                               : 2\nFormat                           : AAC\nFormat/Info                      : Advanced Audio Codec\nFormat profile                   : LC\nCodec ID                         : 40\nDuration                         : 49mn 55s\nBit rate mode                    : Variable\nBit rate                         : 152 Kbps\nChannel(s)                       : 2 channels\nChannel positions                : Front: L R\nSampling rate                    : 44.1 KHz\nCompression mode                 : Lossy\nStream size                      : 54.1 MiB (10%)\n\n","torrent":{"xt":"urn:btih:0421d305d679e246ddded7162375d6a18030c69d","amp;dn":"006_Famous+Diamonds+%28greek+audio%29+Discovery+Channel.mp4","amp;tr":["udp%3A%2F%2Ftracker.openbittorrent.com%3A80","udp%3A%2F%2Fopen.demonii.com%3A1337","udp%3A%2F%2Ftracker.coppersurfer.tk%3A6969","udp%3A%2F%2Fexodus.desync.com%3A6969"],"infoHash":"0421d305d679e246ddded7162375d6a18030c69d","infoHashBuffer":{"type":"Buffer","data":[4,33,211,5,214,121,226,70,221,222,215,22,35,117,214,161,128,48,198,157]},"announce":[],"urlList":[]}}